<svg xmlns="http://www.w3.org/2000/svg" viewBox="0 0 680 620" preserveAspectRatio="xMidYMid slice" role="img" aria-label="Black and white horror illustration: a giant ghoul skull with glowing eyes, a reaching skeletal hand, smoke, spiderweb, skeleton and dead trees">
  <defs>
    <filter id="rough" x="-20%" y="-20%" width="140%" height="140%">
      <feTurbulence type="fractalNoise" baseFrequency="0.018 0.026" numOctaves="3" seed="7" result="n"/>
      <feDisplacementMap in="SourceGraphic" in2="n" scale="9" xChannelSelector="R" yChannelSelector="G"/>
    </filter>
    <filter id="roughHeavy" x="-30%" y="-30%" width="160%" height="160%">
      <feTurbulence type="fractalNoise" baseFrequency="0.04" numOctaves="4" seed="3" result="n"/>
      <feDisplacementMap in="SourceGraphic" in2="n" scale="16" xChannelSelector="R" yChannelSelector="G"/>
    </filter>
    <filter id="fog" x="-50%" y="-50%" width="200%" height="200%"><feGaussianBlur stdDeviation="22"/></filter>
    <filter id="fogSoft" x="-50%" y="-50%" width="200%" height="200%"><feGaussianBlur stdDeviation="9"/></filter>
    <filter id="smoke">
      <feTurbulence type="fractalNoise" baseFrequency="0.012" numOctaves="4" seed="11" result="t"/>
      <feColorMatrix in="t" type="matrix" values="0 0 0 0 0.62  0 0 0 0 0.62  0 0 0 0 0.62  0 0 0 1.1 -0.35"/>
    </filter>
    <filter id="grain">
      <feTurbulence type="fractalNoise" baseFrequency="0.9" numOctaves="2" stitchTiles="stitch" result="t"/>
      <feColorMatrix in="t" type="matrix" values="0 0 0 0 1  0 0 0 0 1  0 0 0 0 1  0 0 0 0.5 0"/>
    </filter>
    <radialGradient id="bone" cx="46%" cy="38%" r="72%">
      <stop offset="0%" stop-color="#f3f1ea"/><stop offset="42%" stop-color="#cbc8bf"/>
      <stop offset="72%" stop-color="#7e7c74"/><stop offset="100%" stop-color="#1d1d1b"/>
    </radialGradient>
    <radialGradient id="eyeGlow" cx="50%" cy="50%" r="50%">
      <stop offset="0%" stop-color="#ffffff"/><stop offset="35%" stop-color="#e9e7e0"/>
      <stop offset="70%" stop-color="#6e6c66"/><stop offset="100%" stop-color="#000000" stop-opacity="0"/>
    </radialGradient>
    <radialGradient id="socket" cx="50%" cy="42%" r="60%">
      <stop offset="0%" stop-color="#000"/><stop offset="65%" stop-color="#050505"/><stop offset="100%" stop-color="#2a2a27"/>
    </radialGradient>
    <linearGradient id="boneShade" x1="0" y1="0" x2="0" y2="1">
      <stop offset="0%" stop-color="#d7d4cb"/><stop offset="100%" stop-color="#3a3a36"/>
    </linearGradient>
    <radialGradient id="vignette" cx="52%" cy="40%" r="75%">
      <stop offset="55%" stop-color="#000" stop-opacity="0"/><stop offset="100%" stop-color="#000" stop-opacity="0.92"/>
    </radialGradient>
  </defs>

  <rect width="680" height="620" fill="#070707"/>
  <g opacity="0.5"><rect width="680" height="620" filter="url(#smoke)"/></g>
  <g fill="#9b988f" opacity="0.22" filter="url(#fog)">
    <ellipse cx="360" cy="430" rx="260" ry="120"/><ellipse cx="180" cy="360" rx="150" ry="90"/><ellipse cx="520" cy="300" rx="160" ry="110"/>
  </g>

  <g stroke="#000" stroke-width="3" fill="none" opacity="0.92" filter="url(#rough)">
    <path d="M70 620 L70 470 M70 500 L40 460 M70 515 L100 478 M70 478 L52 452 M70 488 L92 452"/>
    <path d="M150 620 L150 500 M150 525 L122 495 M150 540 L182 505 M150 505 L168 478"/>
    <path d="M610 620 L610 455 M610 490 L580 452 M610 505 L642 470 M610 470 L596 442 M610 480 L630 446"/>
    <path d="M540 620 L540 515 M540 535 L515 505 M540 548 L566 516"/>
  </g>

  <g fill="#000" opacity="0.85">
    <path d="M120 70 q8 -10 16 0 q8 -10 16 0 q-8 6 -16 4 q-8 2 -16 -4z"/>
    <path d="M180 50 q5 -7 11 0 q6 -7 11 0 q-6 4 -11 3 q-5 1 -11 -3z"/>
    <path d="M90 110 q5 -7 11 0 q6 -7 11 0 q-6 4 -11 3 q-5 1 -11 -3z"/>
  </g>

  <g stroke="#d8d5cd" stroke-width="1.1" fill="none" opacity="0.8">
    <path d="M680 0 L520 0 M680 0 L680 160 M680 0 L540 60 M680 0 L600 30 M680 0 L500 120 M680 0 L560 8 M680 0 L676 110"/>
    <path d="M650 0 Q636 22 614 24 M600 0 Q584 50 540 56 M560 0 Q548 96 500 118"/>
    <path d="M680 30 Q636 40 632 70 M680 70 Q604 80 600 124 M680 110 Q548 110 540 170"/>
    <circle cx="556" cy="74" r="6" fill="#000" stroke="none"/>
    <path d="M556 80 L556 104" stroke="#bdbab2"/>
    <g stroke="#000" stroke-width="2"><path d="M550 74 l-9 -6 M562 74 l9 -6 M549 78 l-10 0 M563 78 l10 0 M551 82 l-8 6 M561 82 l8 6"/></g>
  </g>

  <g filter="url(#rough)" opacity="0.96">
    <g fill="url(#boneShade)" stroke="#000" stroke-width="1.4">
      <path d="M626 150 c-22 0 -34 16 -34 36 c0 12 5 20 11 25 l0 9 c0 4 4 7 9 7 l28 0 c5 0 9 -3 9 -7 l0 -9 c6 -5 11 -13 11 -25 c0 -20 -12 -36 -34 -36z"/>
      <ellipse cx="615" cy="188" rx="7" ry="9" fill="#000"/><ellipse cx="637" cy="188" rx="7" ry="9" fill="#000"/>
      <path d="M626 198 l-4 10 8 0z" fill="#000"/>
      <rect x="623" y="232" width="6" height="120" rx="3"/>
      <g stroke="#000" stroke-width="3" fill="none">
        <path d="M626 250 q-30 6 -34 26 M626 250 q30 6 34 26"/>
        <path d="M626 272 q-32 6 -36 28 M626 272 q32 6 36 28"/>
        <path d="M626 296 q-30 6 -34 26 M626 296 q30 6 34 26"/>
        <path d="M626 320 q-26 6 -30 22 M626 320 q26 6 30 22"/>
      </g>
      <path d="M598 248 l-30 70" stroke="#000" stroke-width="7" stroke-linecap="round"/>
      <path d="M654 248 l30 70" stroke="#000" stroke-width="7" stroke-linecap="round"/>
    </g>
  </g>

  <g filter="url(#rough)">
    <path fill="url(#bone)" stroke="#000" stroke-width="2.5"
      d="M340 95 c-92 0 -150 64 -150 158 c0 50 20 86 45 108 c10 9 14 18 14 33 l0 36 c0 17 13 28 32 28
         l16 0 0 -34 14 0 0 34 18 0 0 -34 14 0 0 34 18 0 0 -34 14 0 0 34 16 0
         c19 0 32 -11 32 -28 l0 -36 c0 -15 4 -24 14 -33 c25 -22 45 -58 45 -108 c0 -94 -58 -158 -150 -158z"/>
    <path d="M236 250 q34 40 70 44 q-30 30 -78 18 q-6 -36 8 -62z" fill="#000" opacity="0.32"/>
    <path d="M444 250 q-34 40 -70 44 q30 30 78 18 q6 -36 -8 -62z" fill="#000" opacity="0.32"/>
    <path d="M300 360 q40 22 80 0 q-6 26 -40 26 q-34 0 -40 -26z" fill="#000" opacity="0.45"/>
    <path d="M250 210 c0 -30 26 -44 54 -40 c18 3 26 18 22 40 c-5 28 -28 46 -52 42 c-20 -3 -24 -22 -24 -42z" fill="url(#socket)"/>
    <path d="M430 210 c0 -30 -26 -44 -54 -40 c-18 3 -26 18 -22 40 c5 28 28 46 52 42 c20 -3 24 -22 24 -42z" fill="url(#socket)"/>
    <path d="M340 250 l-22 70 q22 16 44 0z" fill="#000"/>
    <path d="M340 262 l-12 44 q12 9 24 0z" fill="#0c0c0c" opacity="0.7"/>
    <g stroke="#000" stroke-width="2" fill="none" opacity="0.7" filter="url(#roughHeavy)">
      <path d="M340 96 l-8 40 6 22 -10 26"/>
      <path d="M300 120 l16 28 M392 130 l-18 26 M250 180 l30 10 M430 180 l-30 10"/>
    </g>
    <g fill="url(#boneShade)" stroke="#000" stroke-width="1.4">
      <path d="M300 386 h20 v30 h-20z"/><path d="M322 388 h18 v34 h-18z"/><path d="M342 388 h18 v34 h-18z"/>
      <path d="M362 386 h18 v30 h-18z"/><path d="M286 384 h14 v24 h-14z"/><path d="M380 384 h14 v24 h-14z"/>
    </g>
  </g>

  <g>
    <ellipse cx="290" cy="222" rx="42" ry="34" fill="url(#eyeGlow)" opacity="0.9"/>
    <ellipse cx="392" cy="222" rx="42" ry="34" fill="url(#eyeGlow)" opacity="0.9"/>
    <circle cx="292" cy="220" r="9" fill="#fff"/><circle cx="390" cy="220" r="9" fill="#fff"/>
  </g>

  <g filter="url(#roughHeavy)">
    <g fill="url(#boneShade)" stroke="#000" stroke-width="2.2" stroke-linejoin="round">
      <path d="M300 560 c-14 -40 -10 -78 6 -96 c14 -16 40 -14 50 6 c8 16 8 40 4 70 z"/>
      <path d="M300 470 c-10 -46 -6 -92 2 -120 c3 -10 16 -10 18 1 c4 30 4 78 0 120 z"/>
      <path d="M322 462 c-6 -52 -4 -110 2 -146 c2 -11 16 -11 18 0 c5 36 5 96 0 148 z"/>
      <path d="M346 462 c-4 -50 -2 -104 4 -138 c2 -11 16 -10 17 1 c4 34 4 88 -1 140 z"/>
      <path d="M368 470 c0 -42 4 -86 10 -112 c3 -11 16 -9 16 2 c1 28 -2 74 -8 114 z"/>
      <path d="M300 500 c-26 -16 -46 -34 -52 -52 c-4 -12 8 -20 18 -13 c18 12 36 32 48 52 z"/>
    </g>
    <g stroke="#000" stroke-width="1.4" opacity="0.5" fill="none">
      <path d="M310 360 l0 100 M331 350 l0 110 M355 352 l0 108 M380 372 l0 92"/>
    </g>
  </g>

  <g fill="#bcb9b0" opacity="0.20" filter="url(#fogSoft)"><ellipse cx="330" cy="560" rx="220" ry="60"/></g>
  <rect width="680" height="620" fill="url(#vignette)"/>
  <rect width="680" height="620" filter="url(#grain)" opacity="0.5"/>
</svg>
